<svg width="24" height="24" viewBox="0 0 24 24" fill="none" xmlns="http://www.w3.org/2000/svg">
    <rect width="24" height="24" rx="12" fill="white"/>
    <path d="M12 15.6667C12.3682 15.6667 12.6667 15.3682 12.6667 15C12.6667 14.6318 12.3682 14.3333 12 14.3333L12 15.6667ZM11.9933 14.3333C11.6251 14.3333 11.3267 14.6318 11.3267 15C11.3267 15.3682 11.6251 15.6667 11.9933 15.6667L11.9933 14.3333ZM12 14.3333L11.9933 14.3333L11.9933 15.6667L12 15.6667L12 14.3333ZM12.3333 15C12.3333 15.1841 12.1841 15.3333 12 15.3333L12 14C11.4477 14 11 14.4477 11 15L12.3333 15ZM12 15.3333C11.8159 15.3333 11.6667 15.1841 11.6667 15L13 15C13 14.4477 12.5523 14 12 14L12 15.3333ZM11.6667 15C11.6667 14.8159 11.8159 14.6667 12 14.6667L12 16C12.5523 16 13 15.5523 13 15L11.6667 15ZM12 14.6667C12.1841 14.6667 12.3333 14.8159 12.3333 15L11 15C11 15.5523 11.4477 16 12 16L12 14.6667ZM6.66667 12C6.66667 9.05448 9.05448 6.66667 12 6.66667L12 5.33333C8.3181 5.33333 5.33333 8.3181 5.33333 12L6.66667 12ZM12 6.66667C14.9455 6.66667 17.3333 9.05448 17.3333 12L18.6667 12C18.6667 8.3181 15.6819 5.33333 12 5.33333L12 6.66667ZM17.3333 12C17.3333 14.9455 14.9455 17.3333 12 17.3333L12 18.6667C15.6819 18.6667 18.6667 15.6819 18.6667 12L17.3333 12ZM12 17.3333C9.05448 17.3333 6.66667 14.9455 6.66667 12L5.33333 12C5.33333 15.6819 8.3181 18.6667 12 18.6667L12 17.3333ZM11.3333 8L11.3333 12.6667L12.6667 12.6667L12.6667 8L11.3333 8Z" fill="#DB0042"/>
</svg>
